<svg id="svg" version="1.1" width="400" height="424.48979591836735" viewBox="0 0 400 424.48979591836735" xmlns="http://www.w3.org/2000/svg" xmlns:xlink="http://www.w3.org/1999/xlink"><g id="svgg"><path id="path0" d="M196.000 21.668 C 191.066 23.229,187.397 26.579,185.466 31.288 L 184.600 33.400 184.600 211.800 L 184.600 390.200 185.718 392.477 C 192.893 407.087,213.865 404.023,216.354 388.000 C 216.728 385.595,217.400 183.573,217.400 73.600 L 217.400 33.400 216.473 31.217 C 213.012 23.065,204.351 19.025,196.000 21.668 M113.972 138.920 C 108.639 140.436,104.614 144.740,103.212 150.423 C 102.901 151.686,102.807 172.391,102.887 222.000 L 103.000 291.800 104.094 294.134 C 109.753 306.215,126.809 306.434,132.834 294.504 L 134.200 291.800 134.200 221.400 C 134.200 141.714,134.517 149.190,130.941 144.633 C 127.035 139.657,119.868 137.244,113.972 138.920 M279.401 146.675 C 273.824 148.425,269.945 152.955,268.824 159.025 C 268.272 162.010,267.577 282.681,268.092 285.967 C 270.733 302.806,294.409 303.901,299.089 287.400 C 299.895 284.560,300.754 163.191,299.997 159.200 C 298.133 149.376,288.827 143.717,279.401 146.675 M33.300 194.197 C 27.166 195.911,23.173 199.881,21.823 205.605 C 20.981 209.181,20.927 234.740,21.756 237.853 C 25.684 252.605,44.525 254.615,51.232 240.997 L 52.600 238.219 52.723 223.859 C 52.855 208.490,52.639 205.667,51.065 202.229 C 48.311 196.213,39.820 192.375,33.300 194.197 M362.800 194.327 C 352.974 197.614,351.233 201.867,351.221 222.600 C 351.213 236.199,351.540 238.780,353.748 242.548 C 359.918 253.075,375.974 252.359,381.391 241.315 C 384.129 235.732,383.967 207.423,381.165 201.931 C 377.898 195.528,369.546 192.070,362.800 194.327 " stroke="none" fill="#fb4e4d" fill-rule="evenodd"></path><path id="path1" d="M0.000 212.200 L 0.000 424.400 200.000 424.400 L 400.000 424.400 400.000 212.200 L 400.000 0.000 200.000 0.000 L 0.000 0.000 0.000 212.200 M206.036 21.737 C 211.196 23.329,214.334 26.180,216.473 31.217 L 217.400 33.400 217.400 73.600 C 217.400 183.573,216.728 385.595,216.354 388.000 C 213.865 404.023,192.893 407.087,185.718 392.477 L 184.600 390.200 184.600 211.800 L 184.600 33.400 185.466 31.288 C 188.812 23.128,197.489 19.100,206.036 21.737 M124.031 139.444 C 128.183 141.071,131.908 144.822,133.421 148.900 C 134.182 150.952,134.200 152.621,134.200 221.400 L 134.200 291.800 132.834 294.504 C 126.809 306.434,109.753 306.215,104.094 294.134 L 103.000 291.800 102.887 222.000 C 102.807 172.391,102.901 151.686,103.212 150.423 C 105.509 141.111,115.216 135.992,124.031 139.444 M291.200 147.237 C 295.560 149.282,299.003 153.965,299.997 159.200 C 300.754 163.191,299.895 284.560,299.089 287.400 C 294.409 303.901,270.733 302.806,268.092 285.967 C 267.577 282.681,268.272 162.010,268.824 159.025 C 270.712 148.802,281.933 142.891,291.200 147.237 M43.800 195.370 C 51.911 199.142,52.908 202.326,52.723 223.859 L 52.600 238.219 51.232 240.997 C 44.525 254.615,25.684 252.605,21.756 237.853 C 20.927 234.740,20.981 209.181,21.823 205.605 C 24.096 195.961,34.576 191.081,43.800 195.370 M374.149 195.205 C 381.550 198.848,383.195 203.149,383.175 218.800 C 383.156 233.911,382.797 238.449,381.391 241.315 C 375.974 252.359,359.918 253.075,353.748 242.548 C 350.187 236.472,349.978 208.895,353.440 201.826 C 356.929 194.700,366.748 191.561,374.149 195.205 " stroke="none" fill="#fcfbfb" fill-rule="evenodd"></path></g></svg>